<svg xmlns="http://www.w3.org/2000/svg" xmlns:xlink="http://www.w3.org/1999/xlink" version="1.1" width="256" height="256" viewBox="0 0 256 256" xml:space="preserve">
<desc>Created with Fabric.js 1.7.22</desc>
<defs>
</defs>
<g transform="translate(128 128) scale(0.97 0.97)" style="">
	<g style="stroke: none; stroke-width: 0; stroke-dasharray: none; stroke-linecap: butt; stroke-linejoin: miter; stroke-miterlimit: 10; fill: none; fill-rule: nonzero; opacity: 1;" transform="translate(-130.05 -130.05000000000004) scale(2.89 2.89)" >
	<path d="M 72.528 51.656 H 1 c -0.332 0 -0.642 -0.164 -0.828 -0.438 s -0.224 -0.623 -0.102 -0.932 l 12.831 -32.225 c 0.151 -0.38 0.52 -0.63 0.929 -0.63 h 55.551 c 0.409 0 0.777 0.25 0.929 0.63 l 7.763 19.495 c 0.205 0.513 -0.046 1.095 -0.559 1.299 c -0.512 0.205 -1.096 -0.046 -1.299 -0.559 l -7.512 -18.865 H 14.509 L 2.475 49.656 h 70.054 c 0.553 0 1 0.447 1 1 S 73.081 51.656 72.528 51.656 z" style="stroke: none; stroke-width: 1; stroke-dasharray: none; stroke-linecap: butt; stroke-linejoin: miter; stroke-miterlimit: 10; fill: rgb(203,203,45); fill-rule: nonzero; opacity: 1;" transform=" matrix(1 0 0 1 0 0) " stroke-linecap="round" />
	<path d="M 41.606 51.656 c -0.552 0 -1 -0.447 -1 -1 V 18.431 c 0 -0.552 0.448 -1 1 -1 s 1 0.448 1 1 v 32.225 C 42.606 51.209 42.159 51.656 41.606 51.656 z" style="stroke: none; stroke-width: 1; stroke-dasharray: none; stroke-linecap: butt; stroke-linejoin: miter; stroke-miterlimit: 10; fill: rgb(203,203,45); fill-rule: nonzero; opacity: 1;" transform=" matrix(1 0 0 1 0 0) " stroke-linecap="round" />
	<path d="M 21.078 51.656 c -0.064 0 -0.13 -0.006 -0.196 -0.02 c -0.542 -0.107 -0.893 -0.634 -0.786 -1.176 l 6.416 -32.225 c 0.108 -0.542 0.631 -0.89 1.176 -0.786 c 0.542 0.108 0.893 0.635 0.786 1.176 l -6.416 32.225 C 21.963 51.327 21.545 51.656 21.078 51.656 z" style="stroke: none; stroke-width: 1; stroke-dasharray: none; stroke-linecap: butt; stroke-linejoin: miter; stroke-miterlimit: 10; fill: rgb(203,203,45); fill-rule: nonzero; opacity: 1;" transform=" matrix(1 0 0 1 0 0) " stroke-linecap="round" />
	<path d="M 62.135 51.656 c -0.468 0 -0.885 -0.329 -0.979 -0.805 L 54.74 18.626 c -0.108 -0.542 0.243 -1.068 0.785 -1.176 c 0.546 -0.107 1.068 0.245 1.176 0.786 l 6.415 32.225 c 0.108 0.542 -0.243 1.068 -0.785 1.176 C 62.265 51.65 62.199 51.656 62.135 51.656 z" style="stroke: none; stroke-width: 1; stroke-dasharray: none; stroke-linecap: butt; stroke-linejoin: miter; stroke-miterlimit: 10; fill: rgb(203,203,45); fill-rule: nonzero; opacity: 1;" transform=" matrix(1 0 0 1 0 0) " stroke-linecap="round" />
	<path d="M 75.798 35.544 H 7.416 c -0.552 0 -1 -0.448 -1 -1 s 0.448 -1 1 -1 h 68.382 c 0.553 0 1 0.448 1 1 S 76.351 35.544 75.798 35.544 z" style="stroke: none; stroke-width: 1; stroke-dasharray: none; stroke-linecap: butt; stroke-linejoin: miter; stroke-miterlimit: 10; fill: rgb(203,203,45); fill-rule: nonzero; opacity: 1;" transform=" matrix(1 0 0 1 0 0) " stroke-linecap="round" />
	<path d="M 72.528 58.627 H 1 c -0.552 0 -1 -0.447 -1 -1 v -6.971 c 0 -0.553 0.448 -1 1 -1 h 71.528 c 0.553 0 1 0.447 1 1 s -0.447 1 -1 1 H 2 v 4.971 h 70.528 c 0.553 0 1 0.447 1 1 S 73.081 58.627 72.528 58.627 z" style="stroke: none; stroke-width: 1; stroke-dasharray: none; stroke-linecap: butt; stroke-linejoin: miter; stroke-miterlimit: 10; fill: rgb(203,203,45); fill-rule: nonzero; opacity: 1;" transform=" matrix(1 0 0 1 0 0) " stroke-linecap="round" />
	<path d="M 48.078 65.599 H 35.135 c -0.552 0 -1 -0.447 -1 -1 v -6.972 c 0 -0.553 0.448 -1 1 -1 h 12.943 c 0.553 0 1 0.447 1 1 v 6.972 C 49.078 65.151 48.631 65.599 48.078 65.599 z M 36.135 63.599 h 10.943 v -4.972 H 36.135 V 63.599 z" style="stroke: none; stroke-width: 1; stroke-dasharray: none; stroke-linecap: butt; stroke-linejoin: miter; stroke-miterlimit: 10; fill: rgb(203,203,45); fill-rule: nonzero; opacity: 1;" transform=" matrix(1 0 0 1 0 0) " stroke-linecap="round" />
	<path d="M 54.493 72.569 H 28.72 c -0.552 0 -1 -0.447 -1 -1 v -4.145 c 0 -2.109 1.717 -3.826 3.827 -3.826 h 20.121 c 2.109 0 3.826 1.717 3.826 3.826 v 4.145 C 55.493 72.122 55.046 72.569 54.493 72.569 z M 29.72 70.569 h 23.773 v -3.145 c 0 -1.007 -0.819 -1.826 -1.826 -1.826 H 31.546 c -1.007 0 -1.827 0.819 -1.827 1.826 V 70.569 z" style="stroke: none; stroke-width: 1; stroke-dasharray: none; stroke-linecap: butt; stroke-linejoin: miter; stroke-miterlimit: 10; fill: rgb(203,203,45); fill-rule: nonzero; opacity: 1;" transform=" matrix(1 0 0 1 0 0) " stroke-linecap="round" />
	<path d="M 89 72.519 H 72.528 c -0.553 0 -1 -0.447 -1 -1 V 41.436 c 0 -0.552 0.447 -1 1 -1 h 3.616 v -3.055 c 0 -0.552 0.447 -1 1 -1 h 7.239 c 0.553 0 1 0.448 1 1 v 3.055 H 89 c 0.553 0 1 0.448 1 1 v 30.083 C 90 72.071 89.553 72.519 89 72.519 z M 73.528 70.519 H 88 V 42.436 h -3.616 c -0.553 0 -1 -0.448 -1 -1 v -3.055 h -5.239 v 3.055 c 0 0.552 -0.447 1 -1 1 h -3.616 V 70.519 z" style="stroke: none; stroke-width: 1; stroke-dasharray: none; stroke-linecap: butt; stroke-linejoin: miter; stroke-miterlimit: 10; fill: rgb(203,203,45); fill-rule: nonzero; opacity: 1;" transform=" matrix(1 0 0 1 0 0) " stroke-linecap="round" />
	<path d="M 78.948 62.421 c -0.155 0 -0.313 -0.036 -0.461 -0.113 c -0.49 -0.255 -0.68 -0.858 -0.425 -1.349 l 2.868 -5.51 h -1.981 c -0.35 0 -0.674 -0.183 -0.854 -0.481 c -0.182 -0.299 -0.194 -0.671 -0.032 -0.98 l 3.63 -6.971 c 0.254 -0.489 0.857 -0.683 1.349 -0.425 c 0.49 0.255 0.68 0.858 0.425 1.349 l -2.868 5.509 h 1.981 c 0.35 0 0.674 0.183 0.854 0.481 c 0.182 0.299 0.194 0.67 0.032 0.98 l -3.63 6.972 C 79.658 62.225 79.31 62.421 78.948 62.421 z" style="stroke: none; stroke-width: 1; stroke-dasharray: none; stroke-linecap: butt; stroke-linejoin: miter; stroke-miterlimit: 10; fill: rgb(203,203,45); fill-rule: nonzero; opacity: 1;" transform=" matrix(1 0 0 1 0 0) " stroke-linecap="round" />
	<path d="M 58.27 72.569 h -3.776 c -0.553 0 -1 -0.447 -1 -1 s 0.447 -1 1 -1 h 3.776 c 1.58 0 2.866 -1.286 2.866 -2.867 c 0 -2.684 2.184 -4.867 4.867 -4.867 h 6.525 c 0.553 0 1 0.447 1 1 s -0.447 1 -1 1 h -6.525 c -1.581 0 -2.867 1.286 -2.867 2.867 C 63.136 70.386 60.953 72.569 58.27 72.569 z" style="stroke: none; stroke-width: 1; stroke-dasharray: none; stroke-linecap: butt; stroke-linejoin: miter; stroke-miterlimit: 10; fill: rgb(203,203,45); fill-rule: nonzero; opacity: 1;" transform=" matrix(1 0 0 1 0 0) " stroke-linecap="round" />
</g>
</g>
</svg>