<svg xmlns="http://www.w3.org/2000/svg" xmlns:xlink="http://www.w3.org/1999/xlink" version="1.1" width="256" height="256" viewBox="0 0 256 256" xml:space="preserve">
<desc>Created with Fabric.js 1.7.22</desc>
<defs>
</defs>
<g transform="translate(128 128) scale(0.72 0.72)" style="">
	<g style="stroke: none; stroke-width: 0; stroke-dasharray: none; stroke-linecap: butt; stroke-linejoin: miter; stroke-miterlimit: 10; fill: none; fill-rule: nonzero; opacity: 1;" transform="translate(-175.05 -175.05000000000004) scale(3.89 3.89)" >
	<path d="M 59.978 42.819 H 19.44 c -0.552 0 -1 -0.448 -1 -1 c 0 -11.728 9.541 -21.269 21.269 -21.269 c 11.728 0 21.269 9.541 21.269 21.269 C 60.978 42.371 60.53 42.819 59.978 42.819 z M 20.465 40.819 h 38.487 C 58.43 30.657 49.998 22.55 39.708 22.55 S 20.987 30.657 20.465 40.819 z" style="stroke: none; stroke-width: 1; stroke-dasharray: none; stroke-linecap: butt; stroke-linejoin: miter; stroke-miterlimit: 10; fill: rgb(255,206,52); fill-rule: nonzero; opacity: 1;" transform=" matrix(1 0 0 1 0 0) " stroke-linecap="round" />
	<path d="M 78.417 42.819 H 68.87 c -0.553 0 -1 -0.448 -1 -1 s 0.447 -1 1 -1 h 9.547 c 0.553 0 1 0.448 1 1 S 78.97 42.819 78.417 42.819 z" style="stroke: none; stroke-width: 1; stroke-dasharray: none; stroke-linecap: butt; stroke-linejoin: miter; stroke-miterlimit: 10; fill: rgb(255,206,52); fill-rule: nonzero; opacity: 1;" transform=" matrix(1 0 0 1 0 0) " stroke-linecap="round" />
	<path d="M 10.547 42.819 H 1 c -0.552 0 -1 -0.448 -1 -1 s 0.448 -1 1 -1 h 9.547 c 0.552 0 1 0.448 1 1 S 11.099 42.819 10.547 42.819 z" style="stroke: none; stroke-width: 1; stroke-dasharray: none; stroke-linecap: butt; stroke-linejoin: miter; stroke-miterlimit: 10; fill: rgb(255,206,52); fill-rule: nonzero; opacity: 1;" transform=" matrix(1 0 0 1 0 0) " stroke-linecap="round" />
	<path d="M 39.708 13.657 c -0.552 0 -1 -0.448 -1 -1 V 3.11 c 0 -0.552 0.448 -1 1 -1 s 1 0.448 1 1 v 9.547 C 40.708 13.209 40.261 13.657 39.708 13.657 z" style="stroke: none; stroke-width: 1; stroke-dasharray: none; stroke-linecap: butt; stroke-linejoin: miter; stroke-miterlimit: 10; fill: rgb(255,206,52); fill-rule: nonzero; opacity: 1;" transform=" matrix(1 0 0 1 0 0) " stroke-linecap="round" />
	<path d="M 60.329 22.199 c -0.256 0 -0.512 -0.098 -0.707 -0.293 c -0.391 -0.39 -0.391 -1.023 0 -1.414 l 6.75 -6.751 c 0.391 -0.391 1.023 -0.391 1.414 0 c 0.391 0.39 0.391 1.023 0 1.414 l -6.75 6.751 C 60.841 22.101 60.585 22.199 60.329 22.199 z" style="stroke: none; stroke-width: 1; stroke-dasharray: none; stroke-linecap: butt; stroke-linejoin: miter; stroke-miterlimit: 10; fill: rgb(255,206,52); fill-rule: nonzero; opacity: 1;" transform=" matrix(1 0 0 1 0 0) " stroke-linecap="round" />
	<path d="M 19.088 22.199 c -0.256 0 -0.512 -0.098 -0.707 -0.293 l -6.751 -6.751 c -0.391 -0.391 -0.391 -1.023 0 -1.414 s 1.023 -0.391 1.414 0 l 6.751 6.751 c 0.391 0.391 0.391 1.023 0 1.414 C 19.6 22.101 19.344 22.199 19.088 22.199 z" style="stroke: none; stroke-width: 1; stroke-dasharray: none; stroke-linecap: butt; stroke-linejoin: miter; stroke-miterlimit: 10; fill: rgb(255,206,52); fill-rule: nonzero; opacity: 1;" transform=" matrix(1 0 0 1 0 0) " stroke-linecap="round" />
	<path d="M 80.144 87.89 H 1.096 c -0.552 0 -1 -0.447 -1 -1 V 50.915 c 0 -0.553 0.448 -1 1 -1 h 79.048 c 0.553 0 1 0.447 1 1 v 9.082 H 89 c 0.553 0 1 0.447 1 1 v 15.811 c 0 0.553 -0.447 1 -1 1 h -7.856 v 9.082 C 81.144 87.442 80.696 87.89 80.144 87.89 z M 2.096 85.89 h 77.048 v -9.082 c 0 -0.553 0.447 -1 1 -1 H 88 V 61.997 h -7.856 c -0.553 0 -1 -0.447 -1 -1 v -9.082 H 2.096 V 85.89 z" style="stroke: none; stroke-width: 1; stroke-dasharray: none; stroke-linecap: butt; stroke-linejoin: miter; stroke-miterlimit: 10; fill: rgb(255,206,52); fill-rule: nonzero; opacity: 1;" transform=" matrix(1 0 0 1 0 0) " stroke-linecap="round" />
	<path d="M 43.389 81.323 c -0.154 0 -0.309 -0.035 -0.451 -0.107 c -0.336 -0.17 -0.549 -0.516 -0.549 -0.893 v -7.308 l -19.573 3.153 c -0.459 0.073 -0.903 -0.175 -1.082 -0.601 c -0.178 -0.426 -0.042 -0.918 0.33 -1.192 l 24.049 -17.7 c 0.305 -0.224 0.709 -0.256 1.044 -0.087 c 0.337 0.17 0.549 0.516 0.549 0.893 v 7.308 l 19.574 -3.153 c 0.451 -0.076 0.902 0.174 1.081 0.601 c 0.179 0.426 0.043 0.918 -0.329 1.192 l -24.05 17.7 C 43.807 81.258 43.599 81.323 43.389 81.323 z M 43.389 70.842 c 0.236 0 0.466 0.084 0.648 0.238 c 0.223 0.19 0.352 0.469 0.352 0.762 v 6.504 l 19.128 -14.078 L 46.865 66.95 c -0.29 0.046 -0.585 -0.037 -0.808 -0.226 c -0.223 -0.19 -0.352 -0.469 -0.352 -0.762 v -6.504 l -0.065 0.049 L 26.579 73.537 l 16.651 -2.683 C 43.283 70.846 43.336 70.842 43.389 70.842 z" style="stroke: none; stroke-width: 1; stroke-dasharray: none; stroke-linecap: butt; stroke-linejoin: miter; stroke-miterlimit: 10; fill: rgb(255,206,52); fill-rule: nonzero; opacity: 1;" transform=" matrix(1 0 0 1 0 0) " stroke-linecap="round" />
</g>
</g>
</svg>