<?xml version="1.0" encoding="iso-8859-1"?>
<!-- Generator: Adobe Illustrator 18.0.0, SVG Export Plug-In . SVG Version: 6.00 Build 0)  -->
<!DOCTYPE svg PUBLIC "-//W3C//DTD SVG 1.1//EN" "http://www.w3.org/Graphics/SVG/1.1/DTD/svg11.dtd">
<svg version="1.1" id="Capa_1" xmlns="http://www.w3.org/2000/svg" xmlns:xlink="http://www.w3.org/1999/xlink" x="0px" y="0px"
	 viewBox="0 0 454.898 454.898" style="enable-background:new 0 0 454.898 454.898;" xml:space="preserve">
<path style="fill:#191918;" d="M336.632,30.5c0-16.818-13.683-30.5-30.5-30.5h-56.5v0.056
	C188.349,3.202,139.223,53.125,137.34,114.729c-6.586,2.167-11.358,8.367-11.358,15.669v211.5h-0.876c-2.485,0-4.5,2.015-4.5,4.5
	s2.015,4.5,4.5,4.5h0.545l-7.385,104h48.432l-7.385-104h0.545c2.485,0,4.5-2.015,4.5-4.5s-2.015-4.5-4.5-4.5h-0.876v-211.5
	c0-4.414-1.715-8.559-4.828-11.672c-2.178-2.178-4.867-3.654-7.794-4.354c2.057-56.589,47.254-102.362,103.614-105.32
	C252.177,23.718,264.861,35,280.132,35h11.781c2.092,10.305,11.221,18.085,22.134,18.085s20.042-7.78,22.134-18.085L336.632,30.5z
	 M157.035,445.898h-29.107l6.745-95h15.617L157.035,445.898z M149.982,130.398v211.5h-15v-211.5c0-4.136,3.364-7.5,7.5-7.5
	c2.01,0,3.895,0.778,5.309,2.192C149.203,126.503,149.982,128.388,149.982,130.398z M259.106,9h47.026
	c10.313,0,18.952,7.297,21.026,17h-47.026C269.82,26,261.18,18.703,259.106,9z M314.047,44.085c-5.912,0-10.94-3.802-12.803-9.085
	h25.605C324.987,40.282,319.959,44.085,314.047,44.085z"/>
<g>
</g>
<g>
</g>
<g>
</g>
<g>
</g>
<g>
</g>
<g>
</g>
<g>
</g>
<g>
</g>
<g>
</g>
<g>
</g>
<g>
</g>
<g>
</g>
<g>
</g>
<g>
</g>
<g>
</g>
</svg>
